<svg data-v-0dd9719b="" version="1.0" xmlns="http://www.w3.org/2000/svg" xmlns:xlink="http://www.w3.org/1999/xlink" width="100%" height="100%" viewBox="0 0 340.000000 250.000000" preserveAspectRatio="xMidYMid meet" color-interpolation-filters="sRGB" style="margin: auto;"> <rect data-v-0dd9719b="" x="0" y="0" width="100%" height="100%" fill="#ffffff" fill-opacity="1" class="background"></rect> <rect data-v-0dd9719b="" x="0" y="0" width="100%" height="100%" fill="url(#watermark)" fill-opacity="1" class="watermarklayer"></rect> <g data-v-0dd9719b="" fill="#0a0619" class="icon-text-wrapper icon-svg-group iconsvg" transform="translate(54.599998474121094,94.74372863769531)"><g class="iconsvg-imagesvg" transform="translate(0,0)" mask="url(#170506dc-0fc0-4414-8b79-0d4723540855)"><g><rect fill="#0a0619" fill-opacity="0" stroke-width="2" x="0" y="0" width="60" height="60.51254122416871" class="image-rect"></rect> <svg filter="url(#colors5400489586)" x="0" y="0" width="60" height="60.51254122416871" filtersec="colorsf308424186" class="image-svg-svg primary" style="overflow: visible;"><svg xmlns="http://www.w3.org/2000/svg" xmlns:xlink="http://www.w3.org/1999/xlink" version="1.1" x="0px" y="0px" viewBox="4 3.726534128189087 64 64.54693603515625" xml:space="preserve"><g><g><path d="M67,66.273407h-5.9008789l-9.06604-7.227047c0.4500732-0.2998047,0.8900146-0.6098633,1.3099365-0.9301758    c1.6276779,1.1986122,3.9067268,1.0434647,5.3701172-0.4199219c1.4699707-1.4697266,1.6098633-3.7797852,0.3898926-5.3999023    c2.7399902-3.6899414,4.5900879-8.0698242,5.25-12.8398438c2.0400391-0.25,3.6201172-2,3.6201172-4.1098633    c0-1.1401367-0.460083-2.1801758-1.2200928-2.9301758c-0.6400146-0.6401386-1.5-1.08008-2.4499512-1.1899433    c-0.7200928-4.6899414-2.5899658-9.0102539-5.3199463-12.6503906c3.2216034-3.8446093-2.0246162-9.0654545-5.8701172-5.8198242    c-3.6398926-2.6899414-7.9499512-4.5200195-12.619873-5.199707c-0.1601563-2.1401367-1.9500732-3.8300779-4.130127-3.8300779    c-2.1799316,0-3.9799805,1.6899412-4.1398926,3.8300779c-4.6600342,0.6796875-8.9700928,2.5097656-12.6000977,5.1899414    c-3.8360538-3.2488089-9.0947304,1.9387541-5.8798828,5.8198242C11.0130615,22.2065144,9.1330566,26.516573,8.4130859,31.21628    c-2.0600586,0.2402344-3.6600342,2.0000019-3.6600342,4.130373c0,2.1098633,1.5799561,3.8496094,3.6099854,4.1098633    c0.6600342,4.7597656,2.5100098,9.1401367,5.2399902,12.8300781c-1.2099609,1.6298828-1.0699463,3.9399414,0.4000244,5.409668    c0.7900391,0.7900391,1.8299561,1.2202148,2.9400635,1.2202148c0.8898926,0,1.7399902-0.2700195,2.4399414-0.7900391    c0.4300537,0.3198242,0.8699951,0.6298828,1.3200684,0.9301758l-9.0761719,7.2167931H5c-0.5522461,0-1,0.4472656-1,1    c0,0.5517578,0.4477539,1,1,1c0.1022215,0.0000229,61.4850693,0.0001221,62,0c0.5522461,0,1-0.4482422,1-1    C68,66.7206726,67.5522461,66.273407,67,66.273407z M19.8830566,51.8261452    c-0.3499756-0.3496094-0.75-0.6298828-1.1699219-0.8295898l0.2700195-1.4702148    c0.8598633,1.0800781,1.8199463,2.0703125,2.869873,2.9501953l-1.2999268,0.2397461    C20.3830566,52.3964577,20.1530762,52.096653,19.8830566,51.8261452z M14.1030273,37.4565163l-1.2399902-0.8500977    c0.2968264-0.9122009,0.2497272-1.8820763-0.0499268-2.6401367l1.289917-0.8901367    C13.9498816,37.591095,14.0786095,36.2116508,14.1030273,37.4565163z M6.7530518,35.346653    c0-1.2169571,0.9817948-2.1601563,2.1500244-2.1601563c1.1002207,0,2.0624752,0.8528862,2.1500244,1.9897461    c0.0729628,1.3845024-0.9807863,2.3203125-2.1500244,2.3203125C7.7407274,37.4965553,6.7530518,36.5527649,6.7530518,35.346653z     M20.6330566,17.8363972l1.4799805,0.2700195l-3.0899658,3.1000977l-0.2799072-1.5302734    C19.5583401,19.2790928,20.2186394,18.6439247,20.6330566,17.8363972z M33.9931641,13.1864948l0.9599609-1.3999023    c0.888382,0.3224201,1.811512,0.3121796,2.5200195,0.0898438l0.8999023,1.3100586H33.9931641z M36.3630371,5.7265339    c1.1714096,0,2.1500244,0.9534044,2.1500244,2.1601563c0,1.1668205-0.9505234,2.1499023-2.1500244,2.1499023    c-1.1468964,0-2.1599121-0.9202127-2.1599121-2.1499023C34.203125,6.6610518,35.2068062,5.7265339,36.3630371,5.7265339z     M49.8325195,20.5258503l-11.1115723,11.109375c-0.3996582-0.3095703-0.8587646-0.5385742-1.3579102-0.6586914V15.21628    C43.0904312,15.4886341,46.5588646,17.6508427,49.8325195,20.5258503z M53.6530762,19.4965534l-0.2900391,1.5795898    c-0.9099121-1.0898438-1.9399414-2.0898438-3.0599365-2.9794922l1.7600098-0.3203125    C52.420639,18.5106964,53.0034447,19.1148663,53.6530762,19.4965534z M65.9731445,35.346653    c0,1.222908-0.9963074,2.1499023-2.1501465,2.1499023c-1.1863098,0-2.1599121-0.961422-2.1599121-2.1499023    c0-1.2033005,0.9793015-2.1503906,2.1599121-2.1503906C64.9681931,33.1962624,65.9731445,34.1204567,65.9731445,35.346653z     M59.8031006,36.3964577l-1.1800537,0.8100586c0.100338-1.1032448,0.1013412-2.530117-0.0500488-3.9101563l1.2700195,0.8701172    C59.6259193,34.8367805,59.5964279,35.6381912,59.8031006,36.3964577z M53.6831055,51.1864967    c-0.6781502,0.3840446-1.22258,0.9717636-1.5500488,1.5898438l-1.3299561-0.25    c0.9599609-0.7998047,1.8499756-1.6899414,2.6400146-2.6499023L53.6831055,51.1864967z M45.3830566,53.7363014    l-2.1599121-1.7197266c-2.2000732-1.7602539-3.460083-4.3798828-3.460083-7.2700195l-0.3795166-4.9042969l10.3070068,10.3066406    C47.2324409,52.351532,47.8496056,52.5597687,45.3830566,53.7363014z M51.1044922,48.7348366L39.4741211,37.1044655    c0.1691895-0.2089844,0.3085938-0.4482422,0.4182129-0.6967773l16.3707275,0.0004883    C56.2875786,43.9720345,53.9977036,45.8913727,51.1044922,48.7348366z M56.2630615,34.4081764l-16.0098877-0.0004883    c-0.0001221-0.0004883,0-0.0009766-0.0001221-0.0014648c-0.0299072-0.4199219-0.1300049-0.8095703-0.289917-1.1796875    c0-0.0048828,0-0.003418,0-0.0048828l11.2836914-11.2817402c0.0686493,0.1005802,3.6379967,2.8864765,5.0162354,9.4067383    V34.4081764z M35.3630371,15.21628v15.7602539c-0.4992676,0.1201172-0.9584961,0.3491211-1.3580322,0.6591797    L22.7744141,20.4052448C26.1544189,17.365694,30.5336914,15.4462605,35.3630371,15.21628z M21.3605957,21.8193073    L32.7630615,33.221653c0,0.0014648,0,0,0,0.0048828c-0.1600342,0.3701172-0.2600098,0.7597656-0.289917,1.1796875    c0,0.0004883,0,0.0009766,0,0.0009766H16.1157227c-0.0045166,0-0.0081787,0.0024414-0.0126953,0.0024414    C16.1275883,34.309639,15.9532757,27.7219353,21.3605957,21.8193073z M16.1030273,36.4042702    c25.8226929,0.0045204,13.0328102,0.0022812,16.7307129,0.0029297c0.1096191,0.2485352,0.2489014,0.487793,0.4177246,0.6967773    L21.4350586,48.9184303l-1.7017822-1.7021484c-0.0001221,0-0.0001221,0-0.0001221,0    C15.8751154,41.7431068,16.1232109,36.5043221,16.1030273,36.4042702z M22.8530273,50.3363991l-0.0037842-0.0039063    l10.5634766-10.5615234c-0.65382,4.1306648,0.5871048,8.6876335-3.8596191,12.2456055l-2.1800537,1.7397461    C23.9474258,52.0624352,24.0650482,51.3379745,22.8530273,50.3363991z M30.7930908,53.5761452    c2.6900635-2.1298828,4.2299805-5.3295898,4.2299805-8.6796875c0.0077515-0.1023941,0.5115318-6.7566032,0.4799805-6.3398438    c0.5141907,0.1282082,1.1501808,0.1414375,1.7800293-0.0102539c0.0078239,0.1023865,0.5118332,6.6965179,0.4799805,6.2797852    c0,6.5223083,5.0854988,9.2870598,5.5400391,9.8105469c0.1022339,0.0814819,10.8319016,8.6334229,10.1500244,8.0898438h-3.5400391    c-13.060463-10.4272346-13.501255-7.618515-25.25-1.4702148l-1.8499756,1.4702148h-3.5300293    C30.2813969,53.9912224,30.8555908,53.5263367,30.7930908,53.5761452z M40.3031006,61.506321    c-0.2200928-0.6899414-0.6199951-1.2998047-1.1500244-1.7700195l0.8300781-1.2099609    c1.4499512,0.4399414,2.8398438,1.1401367,4.0998535,2.1103516C42.8530273,61.0165749,41.5930176,61.3066139,40.3031006,61.506321    z M28.6430664,60.636692c1.1700439-0.9003906,2.4599609-1.5703125,3.8000488-2.0102539l0.9099121,1.3198242    c-0.4199219,0.4404297-0.75,0.9702148-0.9399414,1.5600586C31.1230469,61.3066139,29.8630371,61.0165749,28.6430664,60.636692z     M37.8630371,58.0863991l-0.4799805,0.6899414c-0.3199463-0.0898438-0.6699219-0.1298828-1.0200195-0.1298828    c-0.4599609,0-0.9099121,0.0698242-1.3199463,0.2197266l-0.5100098-0.7294922    C35.6330566,57.9662819,36.7530518,57.9462624,37.8630371,58.0863991z M34.203125,62.79636    c0-0.3901367,0.0999756-0.7597656,0.2900391-1.0698242c0.0198975,0.0097656,0.0499268,0.0097656,0.079834,0l-0.039917-0.0600586    c0.3800049-0.6098633,1.0599365-1.0200195,1.8299561-1.0200195c0.6600342,0,1.25,0.2998047,1.6400146,0.7597656l-0.25,0.3603516    c0.1600342-0.0102539,0.3199463-0.0200195,0.4700928-0.0400391c0.1899414,0.3100586,0.289917,0.6796875,0.289917,1.0698242    c0,0.3300781-0.0699463,0.6401367-0.2099609,0.9199219c-0.3399658,0.7299767-1.0799561,1.2402306-1.9400635,1.2402306    c-0.8599854,0-1.6099854-0.5102539-1.9499512-1.2402306C34.2730713,63.4364967,34.203125,63.1264381,34.203125,62.79636z     M26.7830811,62.1161842c1.75,0.6401367,3.5899658,1.1103516,5.4899902,1.3803711    c0.1898193,1.157711,0.8682861,2.1562462,1.8060303,2.7768517H21.5671387L26.7830811,62.1161842z M40.453125,63.4965553    c1.8999023-0.2700195,3.7299805-0.7402344,5.4899902-1.3803711l5.2160645,4.1572227H38.6369629    C39.5847168,65.6528015,40.2634277,64.6542664,40.453125,63.4965553z M50.3830566,57.7265358l-3.2900391-2.6298828    c0.5300293-0.2900391,1.0500488-0.6000977,1.5500488-0.9301758l2.9899902,0.5498047    c-0.0100098,0.6401367,0.1300049,1.2802734,0.4200439,1.8701172    C51.5130615,56.9863014,50.953125,57.3764381,50.3830566,57.7265358z M57.5631104,51.0165749    c-0.6099854-0.2900391-1.2800293-0.4301758-1.9500732-0.4003906l-0.5400391-2.9199219    c1.5300293-2.3398438,2.630127-4.9799805,3.2000732-7.8198242l2.5-1.7202148    c0.4400635,0.4804688,0.9899902,0.8500977,1.5999756,1.0703125    C61.7530518,43.5863991,60.0631104,47.6161842,57.5631104,51.0165749z M62.322998,31.4862995    c-0.5599365,0.2001953-1.0599365,0.540041-1.4599609,0.9599628l-2.7199707-1.8701191    c-0.5999756-2.6499023-1.6799316-5.1298828-3.1400146-7.3295898l0.5799561-3.1704102    c0.2676888,0.0457039,1.0548859-0.0054569,1.7900391-0.2998047c0.0100098,0,0.0100098,0,0.0100098,0    C59.9130859,23.1464558,61.6530762,27.1464558,62.322998,31.4862995z M51.6430664,15.8163776l-3.6199951,0.6699219h-0.0100098    c-2.0899658-1.2900391-4.4000244-2.2397461-6.8699951-2.7797852c-0.0334854-0.1012745-1.8605919-2.7190771-1.9299316-2.8198242    c0.4099121-0.3701172,0.7399902-0.840332,0.9699707-1.3603516c4.3499756,0.6298828,8.3599854,2.3398438,11.75,4.8500977    C51.7431641,14.8363972,51.6430664,15.3261433,51.6430664,15.8163776z M32.5430908,9.5263386    c0.1900635,0.4301758,0.4400635,0.8100586,0.75,1.1499023c-2.2335835,3.2547512-2.077219,2.991787-2.1199951,3.1201172    c-2.3699951,0.5600586-4.5900879,1.5-6.6000977,2.7700195c-0.1866608-0.1068497-0.0417824-0.0347557-3.4799805-0.6796875    c-0.0100098-0.5102539-0.0998535-1.0302734-0.2999268-1.5102539    C24.1831055,11.8661823,28.1931152,10.1562214,32.5430908,9.5263386z M15.3530273,19.766573    c0.460083,0.1899414,0.9400635,0.2900391,1.4300537,0.2998047l0.6199951,3.3701172    c0.0100098,0.0698242,0.0300293,0.1396484,0.0600586,0.2001953c-1.2800293,2.0195313-2.2399902,4.2597656-2.8100586,6.6396484    c-0.1127729,0.085268-2.8119755,1.9388065-2.9299316,2.0200214c-0.380127-0.3598652-0.8300781-0.6401386-1.3300781-0.83008    C11.072998,27.1264362,12.8131104,23.1264362,15.3530273,19.766573z M10.3530273,39.2265358    c0.5500488-0.2001953,1.0400391-0.5102539,1.4500732-0.9199219l2.7099609,1.8696289    c0.5400391,2.550293,1.5200195,4.9399414,2.8599854,7.090332l-0.6199951,3.3496094    c-0.5499268,0.0205078-1.0899658,0.1503906-1.5999756,0.3901367    C12.6530762,47.6064186,10.9631348,43.5863991,10.3530273,39.2265358z M20.6730957,56.5863991    c0.2800293-0.5600586,0.4299316-1.1801758,0.4299316-1.8300781c0-0.0400391,0-0.0698242-0.0100098-0.1098633l2.9100342-0.5302734    c0.5300293,0.3603516,1.0799561,0.6904297,1.6500244,1l-3.2900391,2.6201172    C21.7830811,57.386692,21.2231445,56.9965553,20.6730957,56.5863991z"></path></g></g></svg></svg> <defs><filter id="colors5400489586"><feColorMatrix type="matrix" values="0 0 0 0 0.0390625  0 0 0 0 0.0234375  0 0 0 0 0.09765625  0 0 0 1 0" class="icon-fecolormatrix"></feColorMatrix></filter> <filter id="colorsf308424186"><feColorMatrix type="matrix" values="0 0 0 0 0.99609375  0 0 0 0 0.99609375  0 0 0 0 0.99609375  0 0 0 1 0" class="icon-fecolormatrix"></feColorMatrix></filter> <filter id="colorsb5062000808"><feColorMatrix type="matrix" values="0 0 0 0 0  0 0 0 0 0  0 0 0 0 0  0 0 0 1 0" class="icon-fecolormatrix"></feColorMatrix></filter></defs></g><rect v-gra="id" width="72" height="72.51254272460938" transform="translate(-6, -6)" style="pointer-events:none;" fill="url(#z5W5LZUBWJiN38E8BqLoc)"></rect></g> <g transform="translate(67,6.560020446777344)"><g data-gra="path-name" fill-rule="" class="tp-name iconsvg-namesvg" transform="translate(0,0)"><g transform="scale(1)"><g><path d="M9.76-31.14L38.84-31.14 38.25-26.86 28.35-26.86 23.85-20.02 40.27-20.02 39.64-15.75 32.63-15.75 38.7 0.4 29.29 0.4 23.22-15.75 21.06-15.75 10.48 0.4 1.08 0.4 11.65-15.75 4.63-15.75 5.26-20.02 14.45-20.02 18.95-26.86 9.18-26.86 9.76-31.14ZM60.88 0.36L61.24-2.21 52.96-2.21 53.55-6.48 61.83-6.48 62.05-8.05 54.72-8.05 55.3-12.33 62.69-12.33 62.91-13.9 55.57-13.9 56.16-18.18 63.49-18.18 63.72-19.75 55.53-19.75 56.16-24.03 64.35-24.03 64.58-25.61 58.19-25.61 58.77-29.88 65.16-29.88 65.2-30.2 64.39-32.04 73.26-32.04 72.94-29.88 81.58-29.88 80.78-24.03 82.62-24.03 81.99-19.75 80.14-19.75 79.33-13.9 70.69-13.9 70.47-12.33 79.11-12.33 78.53-8.05 69.84-8.05 69.61-6.48 79.2-6.48 78.61-2.21 69.03-2.21 68.67 0.36 60.88 0.36ZM49.14 0.4L41.53 0.4 45.85-12.33 53.46-12.33 49.14 0.4ZM53.73-14.04L46.13-14.04 45.54-21.73 53.14-21.73 53.73-14.04ZM55.03-23.45L47.43-23.45 46.84-31.14 54.45-31.14 55.03-23.45ZM74.16-25.61L71.78-25.61 71.55-24.03 73.94-24.03 74.16-25.61ZM70.69-18.18L73.08-18.18 73.3-19.75 70.92-19.75 70.69-18.18ZM93.42-13.46L84.28-13.46 87.84-25.29 92.52-25.29 90.36-17.73 92.61-17.73 95.53-26.91 86.72-26.91 87.3-31.18 101.61-31.18 101.02-26.91 98.19-17.73 100.17-17.73 98.05-2.65Q97.88-1.4 96.86-0.54 95.85 0.32 94.59 0.32L94.59 0.32 85.36 0.32 88.06-4.05 92.07-4.05 93.42-13.46ZM103-29.88L110.66-29.88 110.75-30.29 109.48-31.9 116.37-31.9 116.05-29.88 123.79-29.88 121.95-16.7 101.16-16.7 103-29.88ZM100.8-15.34L121.91-15.34 121.36-11.47 109.08-11.47 108.31-9.86 120.28-9.86 119.83-6.71 116.91 0.27 105.07 0.27 107.69-3.24 112.27-3.24 113.58-6.21 100.48-6.21 102.82-11.47 100.26-11.47 100.8-15.34ZM83.83-10.71L92.16-11.61 91.58-7.25 83.2-6.34 83.83-10.71ZM114.66-19.93L116.86-19.93 117.09-21.6 114.88-21.6 114.66-19.93ZM117.81-26.59L115.6-26.59 115.38-24.97 117.58-24.97 117.81-26.59ZM107.14-19.93L109.26-19.93 109.48-21.6 107.37-21.6 107.14-19.93ZM108.09-26.59L107.86-24.97 109.98-24.97 110.2-26.59 108.09-26.59ZM160.11-22L162.13-5.54 156.01-5.54 154.94-14.35 152.91 0.32 146.02 0.32 148-13.95 143.95-5.58 137.29-5.63 147.64-26.73 142.11-26.73 142.74-31.18 164.88-31.18 164.25-26.73 154.21-26.73 151.92-22 160.11-22ZM128.43 0.36L132.75-30.06 131.71-31.95 139.19-31.95 134.59 0.36 128.43 0.36ZM128.38-8.55L124.92-8.55 128.02-25.43 131.26-25.43 128.38-8.55ZM141.48-16.2L138.06-16.2 139-25.43 142.24-25.43 141.48-16.2Z" transform="translate(-1.0800000429153442, 32.040000915527344)"></path></g> <!----> <!----> <!----> <!----> <!----> <!----> <!----></g></g> <g data-gra="path-slogan" fill-rule="" class="tp-slogan iconsvg-slogansvg" fill="url(#6f266ce3-5640-456b-ad60-6a2e6429fa29)" transform="translate(22.44000244140625,38.440006256103516)"><!----> <!----> <g transform="scale(1, 1)"><g transform="scale(1)"><path d="M3.09-7.59L0.19-7.59L0.19-8.58L7.13-8.58L7.13-7.59L4.22-7.59L4.22 0L3.09 0L3.09-7.59ZM8.34-8.58L9.52-8.58L9.52 0L8.34 0L8.34-8.58ZM17.16 0L16.31-2.48L12.84-2.48L11.95 0L10.78 0L14.02-8.58L15.33-8.58L18.42 0L17.16 0ZM14.58-7.31L13.22-3.52L15.89-3.52L14.63-7.31L14.58-7.31ZM20.86-8.58L25.17-1.64L25.17-8.58L26.30-8.58L26.30 0L24.98 0L20.63-6.94L20.58-6.94L20.58 0L19.45 0L19.45-8.58L20.86-8.58ZM27.38-1.92L27.38-2.77L28.45-2.77L28.45-2.16Q28.45-0.75 29.77-0.75L29.77-0.75Q31.13-0.75 31.13-2.25L31.13-2.25L31.13-8.58L32.30-8.58L32.30-2.30Q32.25 0.09 29.81 0.14L29.81 0.14Q27.52 0.09 27.38-1.92L27.38-1.92ZM34.27-8.58L35.44-8.58L35.44 0L34.27 0L34.27-8.58ZM38.81-8.58L43.13-1.64L43.13-8.58L44.25-8.58L44.25 0L42.94 0L38.58-6.94L38.53-6.94L38.53 0L37.41 0L37.41-8.58L38.81-8.58ZM56.53-6.05L56.53-6.05L55.41-6.05Q54.98-7.78 53.02-7.83L53.02-7.83Q50.30-7.69 50.20-4.36L50.20-4.36Q50.20-0.80 53.06-0.80L53.06-0.80Q55.03-0.84 55.50-3.19L55.50-3.19L56.63-3.19Q56.11 0.05 52.83 0.14L52.83 0.14Q49.08 0 48.98-4.31L48.98-4.31Q49.17-8.63 53.02-8.81L53.02-8.81Q56.06-8.72 56.53-6.05ZM59.16-5.06L63.66-5.06L63.66-8.58L64.83-8.58L64.83 0L63.66 0L63.66-3.98L59.16-3.98L59.16 0L57.98 0L57.98-8.58L59.16-8.58L59.16-5.06ZM67.92-1.03L73.08-1.03L73.08 0L66.75 0L66.75-8.58L72.98-8.58L72.98-7.59L67.92-7.59L67.92-4.92L72.61-4.92L72.61-3.89L67.92-3.89L67.92-1.03ZM75.98-8.58L80.30-1.64L80.30-8.58L81.42-8.58L81.42 0L80.11 0L75.75-6.94L75.70-6.94L75.70 0L74.58 0L74.58-8.58L75.98-8.58ZM89.63-3.61L87-3.61L87-4.59L90.75-4.59L90.75 0L90 0L89.72-1.08Q88.73 0.09 86.91 0.14L86.91 0.14Q85.17 0.14 84.23-0.75L84.23-0.75Q82.83-2.06 82.88-4.36L82.88-4.36Q83.20-8.63 86.95-8.81L86.95-8.81Q90.14-8.63 90.61-6L90.61-6L89.48-6Q89.02-7.78 86.91-7.83L86.91-7.83Q84.23-7.64 84.09-4.31L84.09-4.31Q84.09-0.75 86.95-0.75L86.95-0.75Q87.98-0.75 88.73-1.31L88.73-1.31Q89.67-2.06 89.63-3.61L89.63-3.61ZM93.70-5.06L98.20-5.06L98.20-8.58L99.38-8.58L99.38 0L98.20 0L98.20-3.98L93.70-3.98L93.70 0L92.53 0L92.53-8.58L93.70-8.58L93.70-5.06ZM106.83-3.19L106.83-8.58L108-8.58L108-3.05Q107.86 0.05 104.48 0.14L104.48 0.14Q101.34 0.05 101.20-2.86L101.20-2.86L101.20-8.58L102.38-8.58L102.38-3.19Q102.42-0.84 104.53-0.80L104.53-0.80Q106.83-0.84 106.83-3.19L106.83-3.19ZM115.45 0L114.61-2.48L111.14-2.48L110.25 0L109.08 0L112.31-8.58L113.63-8.58L116.72 0L115.45 0ZM112.88-7.31L111.52-3.52L114.19-3.52L112.92-7.31L112.88-7.31ZM117.94-8.58L119.11-8.58L119.11 0L117.94 0L117.94-8.58Z" transform="translate(-0.1875, 8.8125)"></path></g></g></g></g></g><defs v-gra="od"><linearGradient x1="0" y1="1" x2="0" y2="0" id="6f266ce3-5640-456b-ad60-6a2e6429fa29"><stop offset="0%" stop-color="#ff5857"></stop><stop offset="100%" stop-color="#f09819"></stop></linearGradient><filter id="42443b3f1de60f6b6fd3b6a9844b4764" filterUnits="objectBoundingBox"><feColorMatrix type="matrix" values="0 0 0 0 0.99609375  0 0 0 0 0.99609375  0 0 0 0 0.99609375  0 0 0 1 0"></feColorMatrix></filter></defs><defs v-gra="id"><filter id="34410671-dc36-4ab5-8ca2-f38d98aa8651" filterUnits="userSpaceOnUse"><feColorMatrix type="matrix" values="0 0 0 0 0.99609375  0 0 0 0 0.99609375  0 0 0 0 0.99609375  0 0 0 1 0"></feColorMatrix></filter><linearGradient x1="0" y1="1" x2="0" y2="0" id="z5W5LZUBWJiN38E8BqLoc"><stop offset="0%" stop-color="#ff5857"></stop><stop offset="100%" stop-color="#f09819"></stop></linearGradient><filter id="42443b3f1de60f6b6fd3b6a9844b4764" filterUnits="objectBoundingBox"><feColorMatrix type="matrix" values="0 0 0 0 0.99609375  0 0 0 0 0.99609375  0 0 0 0 0.99609375  0 0 0 1 0"></feColorMatrix></filter></defs><mask v-gra="im" id="170506dc-0fc0-4414-8b79-0d4723540855"><g class="iconsvg-imagesvg" filter="url(#34410671-dc36-4ab5-8ca2-f38d98aa8651)"><g><rect fill="#0a0619" fill-opacity="0" stroke-width="2" x="0" y="0" width="60" height="60.51254122416871" class="image-rect"></rect> <svg x="0" y="0" width="60" height="60.51254122416871" filtersec="colorsf308424186" class="image-svg-svg primary" style="overflow: visible;"><svg xmlns="http://www.w3.org/2000/svg" xmlns:xlink="http://www.w3.org/1999/xlink" version="1.1" x="0px" y="0px" viewBox="4 3.726534128189087 64 64.54693603515625" xml:space="preserve"><g><g><path d="M67,66.273407h-5.9008789l-9.06604-7.227047c0.4500732-0.2998047,0.8900146-0.6098633,1.3099365-0.9301758    c1.6276779,1.1986122,3.9067268,1.0434647,5.3701172-0.4199219c1.4699707-1.4697266,1.6098633-3.7797852,0.3898926-5.3999023    c2.7399902-3.6899414,4.5900879-8.0698242,5.25-12.8398438c2.0400391-0.25,3.6201172-2,3.6201172-4.1098633    c0-1.1401367-0.460083-2.1801758-1.2200928-2.9301758c-0.6400146-0.6401386-1.5-1.08008-2.4499512-1.1899433    c-0.7200928-4.6899414-2.5899658-9.0102539-5.3199463-12.6503906c3.2216034-3.8446093-2.0246162-9.0654545-5.8701172-5.8198242    c-3.6398926-2.6899414-7.9499512-4.5200195-12.619873-5.199707c-0.1601563-2.1401367-1.9500732-3.8300779-4.130127-3.8300779    c-2.1799316,0-3.9799805,1.6899412-4.1398926,3.8300779c-4.6600342,0.6796875-8.9700928,2.5097656-12.6000977,5.1899414    c-3.8360538-3.2488089-9.0947304,1.9387541-5.8798828,5.8198242C11.0130615,22.2065144,9.1330566,26.516573,8.4130859,31.21628    c-2.0600586,0.2402344-3.6600342,2.0000019-3.6600342,4.130373c0,2.1098633,1.5799561,3.8496094,3.6099854,4.1098633    c0.6600342,4.7597656,2.5100098,9.1401367,5.2399902,12.8300781c-1.2099609,1.6298828-1.0699463,3.9399414,0.4000244,5.409668    c0.7900391,0.7900391,1.8299561,1.2202148,2.9400635,1.2202148c0.8898926,0,1.7399902-0.2700195,2.4399414-0.7900391    c0.4300537,0.3198242,0.8699951,0.6298828,1.3200684,0.9301758l-9.0761719,7.2167931H5c-0.5522461,0-1,0.4472656-1,1    c0,0.5517578,0.4477539,1,1,1c0.1022215,0.0000229,61.4850693,0.0001221,62,0c0.5522461,0,1-0.4482422,1-1    C68,66.7206726,67.5522461,66.273407,67,66.273407z M19.8830566,51.8261452    c-0.3499756-0.3496094-0.75-0.6298828-1.1699219-0.8295898l0.2700195-1.4702148    c0.8598633,1.0800781,1.8199463,2.0703125,2.869873,2.9501953l-1.2999268,0.2397461    C20.3830566,52.3964577,20.1530762,52.096653,19.8830566,51.8261452z M14.1030273,37.4565163l-1.2399902-0.8500977    c0.2968264-0.9122009,0.2497272-1.8820763-0.0499268-2.6401367l1.289917-0.8901367    C13.9498816,37.591095,14.0786095,36.2116508,14.1030273,37.4565163z M6.7530518,35.346653    c0-1.2169571,0.9817948-2.1601563,2.1500244-2.1601563c1.1002207,0,2.0624752,0.8528862,2.1500244,1.9897461    c0.0729628,1.3845024-0.9807863,2.3203125-2.1500244,2.3203125C7.7407274,37.4965553,6.7530518,36.5527649,6.7530518,35.346653z     M20.6330566,17.8363972l1.4799805,0.2700195l-3.0899658,3.1000977l-0.2799072-1.5302734    C19.5583401,19.2790928,20.2186394,18.6439247,20.6330566,17.8363972z M33.9931641,13.1864948l0.9599609-1.3999023    c0.888382,0.3224201,1.811512,0.3121796,2.5200195,0.0898438l0.8999023,1.3100586H33.9931641z M36.3630371,5.7265339    c1.1714096,0,2.1500244,0.9534044,2.1500244,2.1601563c0,1.1668205-0.9505234,2.1499023-2.1500244,2.1499023    c-1.1468964,0-2.1599121-0.9202127-2.1599121-2.1499023C34.203125,6.6610518,35.2068062,5.7265339,36.3630371,5.7265339z     M49.8325195,20.5258503l-11.1115723,11.109375c-0.3996582-0.3095703-0.8587646-0.5385742-1.3579102-0.6586914V15.21628    C43.0904312,15.4886341,46.5588646,17.6508427,49.8325195,20.5258503z M53.6530762,19.4965534l-0.2900391,1.5795898    c-0.9099121-1.0898438-1.9399414-2.0898438-3.0599365-2.9794922l1.7600098-0.3203125    C52.420639,18.5106964,53.0034447,19.1148663,53.6530762,19.4965534z M65.9731445,35.346653    c0,1.222908-0.9963074,2.1499023-2.1501465,2.1499023c-1.1863098,0-2.1599121-0.961422-2.1599121-2.1499023    c0-1.2033005,0.9793015-2.1503906,2.1599121-2.1503906C64.9681931,33.1962624,65.9731445,34.1204567,65.9731445,35.346653z     M59.8031006,36.3964577l-1.1800537,0.8100586c0.100338-1.1032448,0.1013412-2.530117-0.0500488-3.9101563l1.2700195,0.8701172    C59.6259193,34.8367805,59.5964279,35.6381912,59.8031006,36.3964577z M53.6831055,51.1864967    c-0.6781502,0.3840446-1.22258,0.9717636-1.5500488,1.5898438l-1.3299561-0.25    c0.9599609-0.7998047,1.8499756-1.6899414,2.6400146-2.6499023L53.6831055,51.1864967z M45.3830566,53.7363014    l-2.1599121-1.7197266c-2.2000732-1.7602539-3.460083-4.3798828-3.460083-7.2700195l-0.3795166-4.9042969l10.3070068,10.3066406    C47.2324409,52.351532,47.8496056,52.5597687,45.3830566,53.7363014z M51.1044922,48.7348366L39.4741211,37.1044655    c0.1691895-0.2089844,0.3085938-0.4482422,0.4182129-0.6967773l16.3707275,0.0004883    C56.2875786,43.9720345,53.9977036,45.8913727,51.1044922,48.7348366z M56.2630615,34.4081764l-16.0098877-0.0004883    c-0.0001221-0.0004883,0-0.0009766-0.0001221-0.0014648c-0.0299072-0.4199219-0.1300049-0.8095703-0.289917-1.1796875    c0-0.0048828,0-0.003418,0-0.0048828l11.2836914-11.2817402c0.0686493,0.1005802,3.6379967,2.8864765,5.0162354,9.4067383    V34.4081764z M35.3630371,15.21628v15.7602539c-0.4992676,0.1201172-0.9584961,0.3491211-1.3580322,0.6591797    L22.7744141,20.4052448C26.1544189,17.365694,30.5336914,15.4462605,35.3630371,15.21628z M21.3605957,21.8193073    L32.7630615,33.221653c0,0.0014648,0,0,0,0.0048828c-0.1600342,0.3701172-0.2600098,0.7597656-0.289917,1.1796875    c0,0.0004883,0,0.0009766,0,0.0009766H16.1157227c-0.0045166,0-0.0081787,0.0024414-0.0126953,0.0024414    C16.1275883,34.309639,15.9532757,27.7219353,21.3605957,21.8193073z M16.1030273,36.4042702    c25.8226929,0.0045204,13.0328102,0.0022812,16.7307129,0.0029297c0.1096191,0.2485352,0.2489014,0.487793,0.4177246,0.6967773    L21.4350586,48.9184303l-1.7017822-1.7021484c-0.0001221,0-0.0001221,0-0.0001221,0    C15.8751154,41.7431068,16.1232109,36.5043221,16.1030273,36.4042702z M22.8530273,50.3363991l-0.0037842-0.0039063    l10.5634766-10.5615234c-0.65382,4.1306648,0.5871048,8.6876335-3.8596191,12.2456055l-2.1800537,1.7397461    C23.9474258,52.0624352,24.0650482,51.3379745,22.8530273,50.3363991z M30.7930908,53.5761452    c2.6900635-2.1298828,4.2299805-5.3295898,4.2299805-8.6796875c0.0077515-0.1023941,0.5115318-6.7566032,0.4799805-6.3398438    c0.5141907,0.1282082,1.1501808,0.1414375,1.7800293-0.0102539c0.0078239,0.1023865,0.5118332,6.6965179,0.4799805,6.2797852    c0,6.5223083,5.0854988,9.2870598,5.5400391,9.8105469c0.1022339,0.0814819,10.8319016,8.6334229,10.1500244,8.0898438h-3.5400391    c-13.060463-10.4272346-13.501255-7.618515-25.25-1.4702148l-1.8499756,1.4702148h-3.5300293    C30.2813969,53.9912224,30.8555908,53.5263367,30.7930908,53.5761452z M40.3031006,61.506321    c-0.2200928-0.6899414-0.6199951-1.2998047-1.1500244-1.7700195l0.8300781-1.2099609    c1.4499512,0.4399414,2.8398438,1.1401367,4.0998535,2.1103516C42.8530273,61.0165749,41.5930176,61.3066139,40.3031006,61.506321    z M28.6430664,60.636692c1.1700439-0.9003906,2.4599609-1.5703125,3.8000488-2.0102539l0.9099121,1.3198242    c-0.4199219,0.4404297-0.75,0.9702148-0.9399414,1.5600586C31.1230469,61.3066139,29.8630371,61.0165749,28.6430664,60.636692z     M37.8630371,58.0863991l-0.4799805,0.6899414c-0.3199463-0.0898438-0.6699219-0.1298828-1.0200195-0.1298828    c-0.4599609,0-0.9099121,0.0698242-1.3199463,0.2197266l-0.5100098-0.7294922    C35.6330566,57.9662819,36.7530518,57.9462624,37.8630371,58.0863991z M34.203125,62.79636    c0-0.3901367,0.0999756-0.7597656,0.2900391-1.0698242c0.0198975,0.0097656,0.0499268,0.0097656,0.079834,0l-0.039917-0.0600586    c0.3800049-0.6098633,1.0599365-1.0200195,1.8299561-1.0200195c0.6600342,0,1.25,0.2998047,1.6400146,0.7597656l-0.25,0.3603516    c0.1600342-0.0102539,0.3199463-0.0200195,0.4700928-0.0400391c0.1899414,0.3100586,0.289917,0.6796875,0.289917,1.0698242    c0,0.3300781-0.0699463,0.6401367-0.2099609,0.9199219c-0.3399658,0.7299767-1.0799561,1.2402306-1.9400635,1.2402306    c-0.8599854,0-1.6099854-0.5102539-1.9499512-1.2402306C34.2730713,63.4364967,34.203125,63.1264381,34.203125,62.79636z     M26.7830811,62.1161842c1.75,0.6401367,3.5899658,1.1103516,5.4899902,1.3803711    c0.1898193,1.157711,0.8682861,2.1562462,1.8060303,2.7768517H21.5671387L26.7830811,62.1161842z M40.453125,63.4965553    c1.8999023-0.2700195,3.7299805-0.7402344,5.4899902-1.3803711l5.2160645,4.1572227H38.6369629    C39.5847168,65.6528015,40.2634277,64.6542664,40.453125,63.4965553z M50.3830566,57.7265358l-3.2900391-2.6298828    c0.5300293-0.2900391,1.0500488-0.6000977,1.5500488-0.9301758l2.9899902,0.5498047    c-0.0100098,0.6401367,0.1300049,1.2802734,0.4200439,1.8701172    C51.5130615,56.9863014,50.953125,57.3764381,50.3830566,57.7265358z M57.5631104,51.0165749    c-0.6099854-0.2900391-1.2800293-0.4301758-1.9500732-0.4003906l-0.5400391-2.9199219    c1.5300293-2.3398438,2.630127-4.9799805,3.2000732-7.8198242l2.5-1.7202148    c0.4400635,0.4804688,0.9899902,0.8500977,1.5999756,1.0703125    C61.7530518,43.5863991,60.0631104,47.6161842,57.5631104,51.0165749z M62.322998,31.4862995    c-0.5599365,0.2001953-1.0599365,0.540041-1.4599609,0.9599628l-2.7199707-1.8701191    c-0.5999756-2.6499023-1.6799316-5.1298828-3.1400146-7.3295898l0.5799561-3.1704102    c0.2676888,0.0457039,1.0548859-0.0054569,1.7900391-0.2998047c0.0100098,0,0.0100098,0,0.0100098,0    C59.9130859,23.1464558,61.6530762,27.1464558,62.322998,31.4862995z M51.6430664,15.8163776l-3.6199951,0.6699219h-0.0100098    c-2.0899658-1.2900391-4.4000244-2.2397461-6.8699951-2.7797852c-0.0334854-0.1012745-1.8605919-2.7190771-1.9299316-2.8198242    c0.4099121-0.3701172,0.7399902-0.840332,0.9699707-1.3603516c4.3499756,0.6298828,8.3599854,2.3398438,11.75,4.8500977    C51.7431641,14.8363972,51.6430664,15.3261433,51.6430664,15.8163776z M32.5430908,9.5263386    c0.1900635,0.4301758,0.4400635,0.8100586,0.75,1.1499023c-2.2335835,3.2547512-2.077219,2.991787-2.1199951,3.1201172    c-2.3699951,0.5600586-4.5900879,1.5-6.6000977,2.7700195c-0.1866608-0.1068497-0.0417824-0.0347557-3.4799805-0.6796875    c-0.0100098-0.5102539-0.0998535-1.0302734-0.2999268-1.5102539    C24.1831055,11.8661823,28.1931152,10.1562214,32.5430908,9.5263386z M15.3530273,19.766573    c0.460083,0.1899414,0.9400635,0.2900391,1.4300537,0.2998047l0.6199951,3.3701172    c0.0100098,0.0698242,0.0300293,0.1396484,0.0600586,0.2001953c-1.2800293,2.0195313-2.2399902,4.2597656-2.8100586,6.6396484    c-0.1127729,0.085268-2.8119755,1.9388065-2.9299316,2.0200214c-0.380127-0.3598652-0.8300781-0.6401386-1.3300781-0.83008    C11.072998,27.1264362,12.8131104,23.1264362,15.3530273,19.766573z M10.3530273,39.2265358    c0.5500488-0.2001953,1.0400391-0.5102539,1.4500732-0.9199219l2.7099609,1.8696289    c0.5400391,2.550293,1.5200195,4.9399414,2.8599854,7.090332l-0.6199951,3.3496094    c-0.5499268,0.0205078-1.0899658,0.1503906-1.5999756,0.3901367    C12.6530762,47.6064186,10.9631348,43.5863991,10.3530273,39.2265358z M20.6730957,56.5863991    c0.2800293-0.5600586,0.4299316-1.1801758,0.4299316-1.8300781c0-0.0400391,0-0.0698242-0.0100098-0.1098633l2.9100342-0.5302734    c0.5300293,0.3603516,1.0799561,0.6904297,1.6500244,1l-3.2900391,2.6201172    C21.7830811,57.386692,21.2231445,56.9965553,20.6730957,56.5863991z"></path></g></g></svg></svg> <defs><filter id="colors5400489586"><feColorMatrix type="matrix" values="0 0 0 0 0.0390625  0 0 0 0 0.0234375  0 0 0 0 0.09765625  0 0 0 1 0" class="icon-fecolormatrix"></feColorMatrix></filter> <filter id="colorsf308424186"><feColorMatrix type="matrix" values="0 0 0 0 0.99609375  0 0 0 0 0.99609375  0 0 0 0 0.99609375  0 0 0 1 0" class="icon-fecolormatrix"></feColorMatrix></filter> <filter id="colorsb5062000808"><feColorMatrix type="matrix" values="0 0 0 0 0  0 0 0 0 0  0 0 0 0 0  0 0 0 1 0" class="icon-fecolormatrix"></feColorMatrix></filter></defs></g></g></mask></svg>